<svg xmlns="http://www.w3.org/2000/svg" viewBox="0 0 50 50"><defs/><defs><clipPath id="b" clipPathUnits="userSpaceOnUse"><path fill="#1a202d" stroke="#fff" stroke-linecap="round" stroke-linejoin="round" stroke-width="0" d="M94.7-138.8H451v361H94.7zM336.3-8.9a63.5 63.5 0 00-63.5-63.5 63.5 63.5 0 00-63.4 63.5 63.5 63.5 0 0063.4 63.5A63.5 63.5 0 00336.3-9" class="powerclip" paint-order="fill markers stroke"/></clipPath><clipPath id="a" clipPathUnits="userSpaceOnUse"><path stroke="#000" stroke-linecap="round" stroke-linejoin="round" stroke-width="2.5" d="M119.9-138.8h356.3v361H120zM298-63.9A55.1 55 0 00243-9a55.1 55 0 0055 55 55.1 55 0 0055.2-55 55.1 55 0 00-55.1-55 55.1 55 0 000 0zM256 57.4a84.1 84 0 00-42 72.8h168.2a84.1 84 0 00-42-72.8 84.1 84 0 00-84.2 0z" class="powerclip" paint-order="fill markers stroke"/></clipPath></defs><g fill="#1a202d" paint-order="fill markers stroke" transform="translate(-81.5)"><ellipse cx="106.5" cy="17.8" rx="6.4" ry="6.3"/><g stroke="none" stroke-width="7" clip-path="url(#a)" transform="matrix(.14436 0 0 .14247 63.5 19)"><path d="M446 41.7a173.2 175.5 0 01-173.2 175.5A173.2 175.5 0 0199.7 41.7a173.2 175.5 0 01173.1-175.5A173.2 175.5 0 01446 41.7z" clip-path="url(#b)" transform="translate(25.2)"/><circle cx="298.1" cy="-8.9" r="44.5"/></g><path d="M116 35.8a9.5 8 0 00-4.7-6.9 9.5 8 0 00-9.5 0 9.5 8 0 00-4.7 6.9h9.4z"/></g></svg>