<svg xmlns="http://www.w3.org/2000/svg" viewBox="0 0 1000 1000"><defs/><path d="M53 13c-15 5-25 12-32 23-12 19-11-3-11 345l1 317 5 11c7 15 14 22 28 29l13 6 68 1h69v111c0 122-1 118 12 128 7 6 16 7 26 6 6-2 21-15 128-123l122-122h231l231-1 11-5c13-6 24-16 30-30l5-11V56l-6-13c-7-14-14-21-29-28l-11-5H503C84 10 62 10 53 13zm862 63l10 9c4 5 4 5 4 292s0 288-4 293l-10 9c-5 4-6 4-225 5l-221 1-13 5c-11 6-19 13-106 100l-95 94v-88c0-98 0-96-13-106l-7-5-72-1c-69-1-73-1-78-5l-9-9c-4-5-4-6-5-288l1-288c1-7 9-17 17-21 5-2 78-2 414-2l407 1 5 4z"/><path d="M273 227c-4 2-9 6-12 10-7 10-7 26 0 35 10 14 7 13 117 13s106 1 116-13c8-10 8-25 0-35-10-13-7-13-117-13-87 0-99 0-104 3zM273 350c-4 2-9 6-12 10-7 9-7 25 0 35 11 14-6 13 239 13 246 0 229 1 240-13 7-10 7-26 0-35-11-14 6-13-240-13-201 0-222 0-227 3zM273 473c-4 1-9 6-12 9-7 10-7 26 0 36 11 13 1 13 178 13 178 0 167 0 178-13 4-6 5-9 5-18s-1-12-5-18c-11-14 0-13-178-13-144 0-161 1-166 4z"/></svg>