<svg viewBox="0 0 21 21" xmlns="http://www.w3.org/2000/svg"><path d="m0 0h21v21h-21z" fill="none"/><path d="m-522.331-313.71a1.309 1.309 0 0 1 -1.016-.4l-7.42-7.377a6.969 6.969 0 0 1 -1.118-1.314 5.92 5.92 0 0 1 2.033-8.186 6.056 6.056 0 0 1 7.623 1.112 6.174 6.174 0 0 1 4.472-2.021 5.991 5.991 0 0 1 6 5.962 6.119 6.119 0 0 1 -2.033 4.547l-7.42 7.377a2.328 2.328 0 0 1 -1.121.3zm-4.472-16.775a4.743 4.743 0 0 0 -2.338.606 4.543 4.543 0 0 0 -1.525 6.164 2.872 2.872 0 0 0 .915 1.011l7.42 7.377 7.42-7.377a4.616 4.616 0 0 0 1.626-3.436 4.5 4.5 0 0 0 -4.472-4.446 4.613 4.613 0 0 0 -3.863 2.122l-.61 1.011-.61-1.011a5.278 5.278 0 0 0 -3.96-2.021z" transform="translate(532.76 333.3)"/></svg>