<svg xmlns="http://www.w3.org/2000/svg" viewBox="0 0 21 21"><defs/><path fill="none" d="M0 0h21v21H0z"/><path d="M10.43 19.59a1.3 1.3 0 01-1.02-.4L2 11.81A6.97 6.97 0 01.87 10.5 5.92 5.92 0 012.91 2.3a6.06 6.06 0 017.62 1.12A6.17 6.17 0 0115 1.4a6 6 0 016 5.97 6.12 6.12 0 01-2.03 4.54l-7.42 7.38a2.33 2.33 0 01-1.12.3zM5.96 2.82a4.74 4.74 0 00-2.34.6A4.54 4.54 0 002.09 9.6a2.87 2.87 0 00.92 1l7.42 7.38 7.42-7.37a4.62 4.62 0 001.62-3.44A4.5 4.5 0 0015 2.71a4.61 4.61 0 00-3.86 2.13l-.61 1-.61-1a5.28 5.28 0 00-3.96-2.02z"/></svg>